<svg xmlns="http://www.w3.org/2000/svg" viewBox="0 0 500 500"><path opacity="0.4" fill="#283745" d="M458.33301,255.20802 c0,154.34901-53.95801,208.334-208.33301,208.334c-154.3385,0-208.3333-53.98499-208.3333-208.334S95.6615,46.87503,250,46.87503 C404.33899,46.87503,458.33301,100.87003,458.33301,255.20802z"/><path fill="#54759E" d="M458.33301,250.00003c0,154.349-53.95801,208.33301-208.33301,208.33301 c-154.3385,0-208.3333-53.98401-208.3333-208.33301S95.6615,41.66673,250,41.66673 C404.33899,41.66673,458.33301,95.66153,458.33301,250.00003z"/><path opacity="0.15" fill="#FFFFFF" d="M250,41.66673 c-154.3385,0-208.3333,53.9948-208.3333,208.3333c0,154.33899,53.9948,208.33301,208.3333,208.33301 c154.375,0,208.33301-53.98401,208.33301-208.33301S404.35901,41.66673,250,41.66673z M250,453.12503 c-151.8645,0-203.12491-51.26001-203.12491-203.125C46.8751,98.13553,98.1355,46.87513,250,46.87513 c151.86499,0,203.125,51.2604,203.125,203.12489C453.125,401.86502,401.875,453.12503,250,453.12503z"/><path fill-rule="evenodd" clip-rule="evenodd" fill="#FFFFFF" d="M353.93701,144.24603 c10.664-3.41301,15.996-5.119,19.22498-3.8c2.80402,1.145,4.90302,3.548,5.66101,6.48 c0.87399,3.37801-1.53299,8.43201-6.34698,18.541l-90.15802,189.33202c-3.68698,7.74298-5.53,11.61398-8.237,13.104 c-2.36099,1.29999-5.16098,1.547-7.71298,0.67999c-2.92603-0.99402-5.418-4.483-10.40201-11.461l-44.66-62.52301 c-3.85001-5.38998-2.601-12.88101,2.78799-16.73099c5.39-3.85001,12.88101-2.60101,16.731,2.789l32.35201,45.293 c1.246,1.74399,1.86899,2.616,2.60001,2.86499c0.63898,0.21701,1.33899,0.155,1.92899-0.17001 c0.677-0.37299,1.13699-1.34,2.05902-3.276L334.612,189.19102c2.40601-5.054,3.60999-7.58099,3.173-9.26999 c-0.379-1.466-1.42801-2.66701-2.83002-3.24001c-1.61499-0.659-4.28098,0.194-9.61298,1.89999l-145.132,46.442 c-3.73601,1.19501-5.60301,1.793-6.06201,2.653c-0.39499,0.742-0.373,1.63701,0.058,2.35901c0.5,0.836,2.395,1.341,6.18501,2.35199 l91.73799,24.46301c6.39999,1.707,10.20502,8.27899,8.49802,14.67899s-8.27802,10.20401-14.67902,8.49802l-132.84999-35.427 c-15.16-4.043-22.74001-6.06401-24.73901-9.408c-1.726-2.88701-1.814-6.467-0.231-9.436c1.832-3.438,9.304-5.82899,24.24599-10.61 L353.93701,144.24603z"/></svg>